<?xml version="1.0" encoding="UTF-8"?>
<svg id="Layer_1" data-name="Layer 1" xmlns="http://www.w3.org/2000/svg" xmlns:xlink="http://www.w3.org/1999/xlink" viewBox="0 0 2000 596.61">
  <defs>
    <style>
      .cls-1 {
        clip-path: url(#clippath-6);
      }

      .cls-2 {
        clip-path: url(#clippath-7);
      }

      .cls-3 {
        clip-path: url(#clippath-4);
      }

      .cls-4 {
        fill: none;
      }

      .cls-5 {
        clip-path: url(#clippath-1);
      }

      .cls-6 {
        clip-path: url(#clippath-5);
      }

      .cls-7 {
        clip-path: url(#clippath-3);
      }

      .cls-8 {
        fill: #c1ff72;
      }

      .cls-9 {
        clip-path: url(#clippath-2);
      }

      .cls-10 {
        clip-path: url(#clippath);
      }
    </style>
    <clipPath id="clippath">
      <rect class="cls-4" x="144.28" y="90.78" width="438.71" height="438.71"/>
    </clipPath>
    <clipPath id="clippath-1">
      <rect class="cls-4" x="144" y="90.14" width="440" height="440"/>
    </clipPath>
    <clipPath id="clippath-2">
      <rect class="cls-4" x="144.28" y="90.78" width="438.71" height="438.71"/>
    </clipPath>
    <clipPath id="clippath-3">
      <rect class="cls-4" x="262.67" y="212.8" width="198.67" height="197.33"/>
    </clipPath>
    <clipPath id="clippath-4">
      <rect class="cls-4" x="245.53" y="191.84" width="236" height="237" transform="translate(-112.97 347.95) rotate(-45)"/>
    </clipPath>
    <clipPath id="clippath-5">
      <rect class="cls-4" x="245.53" y="191.84" width="236" height="237" transform="translate(-112.97 347.95) rotate(-45)"/>
    </clipPath>
    <clipPath id="clippath-6">
      <rect class="cls-4" x="245.53" y="191.84" width="236" height="237" transform="translate(-112.97 347.95) rotate(-45)"/>
    </clipPath>
    <clipPath id="clippath-7">
      <rect class="cls-4" x="624" y="154.14" width="1290.67" height="308"/>
    </clipPath>
  </defs>
  <g class="cls-10">
    <g class="cls-5">
      <g class="cls-9">
        <path class="cls-8" d="M144.28,90.78h438.71v438.71H144.28V90.78Z"/>
      </g>
    </g>
  </g>
  <g class="cls-7">
    <g class="cls-3">
      <g class="cls-6">
        <g class="cls-1">
          <path d="M460.67,240.75c-43.43,79.44-19.01,122.21-.59,140.63l-28.62,28.62c-14.82-14.82-40.26-48.91-34.74-104.15l-102.22,102.21-28.7-28.69,102.22-102.22c-55.24,5.52-89.33-19.92-104.15-34.74l28.62-28.62c18.42,18.42,61.19,42.84,140.62-.58l27.56,27.54Z"/>
        </g>
      </g>
    </g>
  </g>
  <g class="cls-2">
    <g>
      <path d="M676.65,248.73h-47.25v-33.08h129.94v33.08h-47.25v132.29h-35.44v-132.29Z"/>
      <path d="M785.32,215.64h73.23c8.82,0,16.81,1.34,23.98,4.02s13.27,6.47,18.31,11.35,8.9,10.74,11.56,17.58c2.68,6.85,4.02,14.37,4.02,22.56,0,9.45-1.46,17.32-4.38,23.62-2.91,6.31-6.17,11.27-9.79,14.88-4.1,4.27-8.83,7.58-14.19,9.94l34.27,61.42h-38.98l-29.54-54.33h-33.06v54.33h-35.44v-165.37h.01ZM857.37,293.6c6.62,0,12.02-2.08,16.19-6.25,4.18-4.18,6.27-9.57,6.27-16.19s-2.09-12-6.27-16.17c-4.17-4.18-9.56-6.27-16.19-6.27h-36.6v44.88h36.6Z"/>
      <path d="M1022.75,384.56c-10.72,0-20.49-1.77-29.31-5.31s-16.39-8.46-22.69-14.75c-6.29-6.3-11.21-13.86-14.75-22.69-3.54-8.82-5.31-18.59-5.31-29.31v-96.85h35.44v96.85c0,5.99.9,11.35,2.71,16.08,1.82,4.72,4.34,8.82,7.56,12.29,3.23,3.46,7.09,6.1,11.58,7.92,4.48,1.81,9.41,2.71,14.77,2.71s10.26-.9,14.75-2.71c4.5-1.82,8.36-4.46,11.58-7.92,3.22-3.47,5.73-7.57,7.54-12.29,1.82-4.73,2.73-10.09,2.73-16.08v-96.85h35.44v96.85c0,10.72-1.77,20.49-5.31,29.31-3.54,8.82-8.47,16.39-14.77,22.69-6.29,6.29-13.89,11.21-22.79,14.75-8.91,3.54-18.63,5.31-29.17,5.31Z"/>
      <path d="M1183.4,384.56c-10.72,0-20.06-1.33-28.02-4-7.95-2.68-14.59-5.68-19.94-9-6.31-3.78-11.58-8.1-15.83-12.98l23.62-23.62c2.83,3.31,6.21,6.3,10.15,8.98,3.32,2.2,7.38,4.2,12.17,6.02,4.8,1.81,10.36,2.71,16.67,2.71,9.44,0,16.33-1.8,20.67-5.42,4.33-3.62,6.5-8.11,6.5-13.48,0-4.72-2.05-8.46-6.15-11.21-4.1-2.76-9.22-5.25-15.35-7.46-6.14-2.21-12.76-4.49-19.85-6.85-7.08-2.36-13.7-5.46-19.83-9.31-6.14-3.86-11.26-8.82-15.35-14.9-4.1-6.07-6.15-13.9-6.15-23.5,0-6.46,1.38-12.64,4.12-18.54,2.76-5.92,6.7-11.07,11.81-15.48,5.12-4.42,11.42-7.92,18.9-10.52,7.48-2.59,15.96-3.9,25.42-3.9s17.19,1.18,24.21,3.54c7.01,2.36,12.8,4.96,17.38,7.79,5.34,3.31,9.99,7.01,13.94,11.1l-23.62,23.62c-2.53-2.68-5.29-5.04-8.27-7.08-2.68-1.73-5.91-3.34-9.69-4.83-3.78-1.5-8.04-2.25-12.77-2.25-8.97,0-15.35,1.58-19.12,4.73-3.78,3.14-5.67,7.08-5.67,11.81s2.04,8.47,6.12,11.23c4.09,2.75,9.21,5.23,15.35,7.44,6.15,2.2,12.77,4.47,19.85,6.83,7.08,2.36,13.69,5.47,19.83,9.33,6.15,3.86,11.28,8.83,15.38,14.9,4.09,6.06,6.15,13.89,6.15,23.5,0,6.78-1.43,13.24-4.27,19.38-2.83,6.14-6.97,11.54-12.4,16.19-5.43,4.64-12.01,8.34-19.73,11.1-7.73,2.75-16.47,4.13-26.23,4.13Z"/>
      <path d="M1300.34,248.73h-47.25v-33.08h129.94v33.08h-47.25v132.29h-35.44v-132.29Z"/>
      <path d="M1409.01,215.64h69.69c8.19,0,15.59,1.18,22.21,3.54,6.61,2.36,12.2,5.52,16.77,9.46,4.57,3.93,8.07,8.58,10.5,13.94,2.44,5.35,3.67,10.94,3.67,16.77,0,6.61-1.18,12.08-3.54,16.42-2.36,4.33-4.96,7.84-7.79,10.52-3.31,3.14-7.01,5.58-11.1,7.31,5.67,1.74,10.78,4.42,15.35,8.04,3.78,3.16,7.28,7.29,10.5,12.42,3.23,5.11,4.85,11.68,4.85,19.71,0,6.46-1.3,12.56-3.9,18.31s-6.34,10.75-11.23,15c-4.88,4.25-10.82,7.64-17.83,10.17-7,2.52-14.91,3.77-23.73,3.77h-74.42v-165.38h0ZM1481.05,350.31c7.09,0,12.61-1.84,16.54-5.54,3.94-3.71,5.92-8.55,5.92-14.54s-1.97-10.82-5.92-14.52c-3.93-3.71-9.45-5.56-16.54-5.56h-36.6v40.17h36.6ZM1476.32,279.43c5.98,0,10.63-1.57,13.94-4.73,3.32-3.15,4.98-7.09,4.98-11.81s-1.66-8.66-4.98-11.81c-3.31-3.15-7.95-4.73-13.94-4.73h-31.88v33.08h31.88Z"/>
      <path d="M1651.14,384.56c-12.75,0-24.6-2.29-35.54-6.85-10.95-4.57-20.44-10.75-28.48-18.54-8.03-7.79-14.33-16.92-18.9-27.4-4.57-10.47-6.85-21.61-6.85-33.44s2.28-22.94,6.85-33.42c4.57-10.48,10.86-19.62,18.9-27.42,8.04-7.79,17.53-13.97,28.48-18.54,10.94-4.57,22.79-6.85,35.54-6.85s24.61,2.29,35.56,6.85c10.94,4.57,20.43,10.75,28.46,18.54,8.04,7.79,14.34,16.93,18.92,27.42,4.57,10.47,6.85,21.61,6.85,33.42s-2.29,22.97-6.85,33.44c-4.57,10.47-10.88,19.6-18.92,27.4-8.03,7.79-17.52,13.97-28.46,18.54-10.94,4.56-22.8,6.85-35.56,6.85ZM1651.14,351.5c7.4,0,14.33-1.38,20.79-4.12,6.46-2.76,12.09-6.55,16.9-11.35,4.8-4.8,8.58-10.44,11.33-16.9,2.76-6.46,4.15-13.39,4.15-20.79s-1.39-14.33-4.15-20.79c-2.75-6.46-6.53-12.09-11.33-16.9-4.81-4.8-10.44-8.58-16.9-11.33s-13.39-4.12-20.79-4.12-14.31,1.38-20.77,4.12-12.09,6.53-16.9,11.33c-4.81,4.81-8.59,10.44-11.35,16.9-2.75,6.46-4.12,13.39-4.12,20.79s1.38,14.33,4.12,20.79c2.76,6.46,6.55,12.09,11.35,16.9,4.8,4.81,10.44,8.59,16.9,11.35,6.46,2.74,13.38,4.12,20.77,4.12Z"/>
      <path d="M1803.54,294.79l-51.98-79.15h41.33l33.79,54.33h.94l33.79-54.33h41.33l-51.96,79.15,56.69,86.23h-41.33l-38.52-61.42h-.94l-38.52,61.42h-41.33l56.71-86.23Z"/>
    </g>
  </g>
</svg>