<?xml version="1.0" encoding="UTF-8"?>
<svg id="Layer_1" data-name="Layer 1" xmlns="http://www.w3.org/2000/svg" xmlns:xlink="http://www.w3.org/1999/xlink" viewBox="0 0 2000 596.61">
  <defs>
    <style>
      .cls-1 {
        fill: none;
      }

      .cls-2 {
        clip-path: url(#clippath);
        fill: #ffffff;
      }
    </style>
    <clipPath id="clippath">
      <rect class="cls-1" x="61.81" y="99.46" width="1876.39" height="447.77"/>
    </clipPath>
  </defs>
  <g class="cls-2">
    <g>
      <path d="M138.35,236.97h-68.69v-48.1h188.9v48.1h-68.69v192.33h-51.52v-192.33Z"/>
      <path d="M296.34,188.87h106.46c12.82,0,24.44,1.95,34.86,5.85,10.42,3.9,19.29,9.4,26.62,16.51,7.33,7.09,12.93,15.61,16.81,25.56,3.89,9.96,5.85,20.89,5.85,32.8,0,13.74-2.12,25.18-6.36,34.35-4.23,9.17-8.97,16.38-14.24,21.63-5.96,6.2-12.83,11.02-20.63,14.45l49.82,89.29h-56.67l-42.95-78.99h-48.07v78.99h-51.52v-240.44h.02ZM401.08,302.21c9.63,0,17.48-3.03,23.53-9.09,6.07-6.07,9.12-13.92,9.12-23.53s-3.04-17.45-9.12-23.5c-6.06-6.07-13.9-9.12-23.53-9.12h-53.22v65.24h53.22Z"/>
      <path d="M641.51,434.44c-15.59,0-29.8-2.57-42.61-7.72-12.83-5.15-23.82-12.3-32.98-21.44-9.15-9.16-16.29-20.16-21.44-32.98s-7.72-27.02-7.72-42.61v-140.81h51.52v140.81c0,8.71,1.31,16.5,3.94,23.38,2.64,6.87,6.31,12.83,10.99,17.87,4.7,5.03,10.31,8.87,16.84,11.51,6.52,2.63,13.67,3.94,21.47,3.94s14.92-1.31,21.44-3.94c6.54-2.64,12.15-6.48,16.84-11.51,4.68-5.04,8.34-11,10.96-17.87,2.64-6.88,3.97-14.67,3.97-23.38v-140.81h51.52v140.81c0,15.59-2.57,29.8-7.72,42.61-5.15,12.83-12.31,23.82-21.47,32.98-9.15,9.15-20.19,16.29-33.13,21.44-12.96,5.15-27.09,7.72-42.42,7.72Z"/>
      <path d="M875.07,434.44c-15.59,0-29.17-1.94-40.74-5.82-11.55-3.89-21.22-8.25-28.99-13.08-9.17-5.49-16.84-11.78-23.02-18.87l34.35-34.35c4.12,4.81,9.03,9.16,14.75,13.05,4.82,3.2,10.72,6.11,17.69,8.75,6.98,2.63,15.06,3.94,24.23,3.94,13.73,0,23.75-2.62,30.05-7.87,6.3-5.27,9.45-11.8,9.45-19.6,0-6.86-2.98-12.3-8.93-16.29-5.96-4.01-13.4-7.63-22.32-10.84-8.93-3.21-18.55-6.53-28.86-9.96-10.3-3.43-19.91-7.94-28.83-13.54-8.93-5.61-16.37-12.83-22.32-21.66-5.96-8.82-8.93-20.21-8.93-34.16,0-9.39,2-18.37,6-26.96,4.01-8.6,9.74-16.1,17.17-22.5,7.45-6.42,16.61-11.52,27.47-15.3,10.88-3.77,23.2-5.66,36.95-5.66s24.99,1.72,35.19,5.15c10.19,3.44,18.61,7.21,25.26,11.33,7.77,4.81,14.52,10.19,20.26,16.14l-34.35,34.35c-3.68-3.89-7.69-7.33-12.02-10.3-3.9-2.52-8.59-4.86-14.08-7.03-5.5-2.18-11.68-3.27-18.57-3.27-13.05,0-22.31,2.29-27.8,6.88-5.5,4.57-8.24,10.29-8.24,17.17s2.97,12.31,8.9,16.33c5.95,4,13.39,7.6,22.32,10.81,8.94,3.2,18.57,6.5,28.86,9.93,10.3,3.44,19.91,7.96,28.83,13.57,8.94,5.62,16.39,12.83,22.35,21.66,5.95,8.81,8.93,20.19,8.93,34.16,0,9.86-2.07,19.25-6.21,28.17-4.12,8.93-10.13,16.77-18.02,23.53-7.9,6.75-17.46,12.13-28.68,16.14-11.21,4.01-23.91,6-38.1,6Z"/>
      <path d="M1045.07,236.97h-68.69v-48.1h188.9v48.1h-68.69v192.33h-51.52v-192.33Z"/>
      <path d="M1203.06,188.87h101.31c11.91,0,22.67,1.72,32.29,5.15,9.61,3.44,17.73,8.02,24.38,13.75,6.64,5.72,11.73,12.47,15.27,20.26,3.55,7.78,5.33,15.9,5.33,24.38,0,9.62-1.72,17.57-5.15,23.87-3.44,6.3-7.21,11.4-11.33,15.3-4.81,4.57-10.19,8.11-16.14,10.63,8.24,2.53,15.67,6.42,22.32,11.69,5.49,4.59,10.58,10.6,15.27,18.05,4.7,7.44,7.06,16.98,7.06,28.65,0,9.39-1.89,18.26-5.66,26.62-3.78,8.36-9.22,15.63-16.33,21.81-7.09,6.18-15.73,11.11-25.93,14.78-10.18,3.66-21.68,5.48-34.5,5.48h-108.19v-240.42ZM1307.79,384.65c10.31,0,18.33-2.68,24.05-8.06,5.73-5.39,8.6-12.43,8.6-21.14s-2.87-15.73-8.6-21.11c-5.72-5.39-13.74-8.09-24.05-8.09h-53.22v58.39h53.22ZM1300.92,281.61c8.7,0,15.45-2.29,20.26-6.88,4.82-4.58,7.24-10.31,7.24-17.17s-2.42-12.58-7.24-17.17c-4.81-4.58-11.56-6.88-20.26-6.88h-46.34v48.1h46.34Z"/>
      <path d="M1555.08,434.44c-18.54,0-35.76-3.32-51.67-9.96-15.92-6.64-29.71-15.63-41.4-26.96-11.68-11.33-20.83-24.6-27.47-39.83-6.65-15.22-9.96-31.42-9.96-48.61s3.32-33.35,9.96-48.58c6.64-15.24,15.8-28.53,27.47-39.86,11.69-11.33,25.49-20.31,41.4-26.96,15.91-6.64,33.13-9.96,51.67-9.96s35.78,3.32,51.7,9.96c15.91,6.65,29.7,15.63,41.37,26.96,11.69,11.33,20.85,24.62,27.5,39.86,6.64,15.23,9.96,31.42,9.96,48.58s-3.32,33.39-9.96,48.61c-6.65,15.23-15.81,28.5-27.5,39.83-11.68,11.33-25.46,20.32-41.37,26.96-15.92,6.64-33.15,9.96-51.7,9.96ZM1555.08,386.38c10.76,0,20.84-2,30.23-6,9.39-4.01,17.57-9.52,24.56-16.51,6.98-6.98,12.48-15.17,16.48-24.56,4.01-9.39,6.03-19.46,6.03-30.23s-2.01-20.84-6.03-30.23c-4-9.39-9.5-17.57-16.48-24.56-6.99-6.98-15.17-12.48-24.56-16.48-9.39-4-19.47-6-30.23-6s-20.81,2-30.2,6-17.58,9.5-24.56,16.48c-6.99,6.99-12.49,15.17-16.51,24.56-4,9.39-6,19.47-6,30.23s2,20.84,6,30.23c4.01,9.39,9.52,17.58,16.51,24.56,6.98,6.99,15.17,12.49,24.56,16.51,9.39,4,19.45,6,30.2,6Z"/>
      <path d="M1776.63,303.93l-75.57-115.06h60.09l49.13,78.99h1.36l49.13-78.99h60.09l-75.54,115.06,82.41,125.36h-60.09l-56-89.29h-1.36l-56,89.29h-60.09l82.44-125.36Z"/>
    </g>
  </g>
</svg>